<svg xml:space="preserve" viewBox="0 0 100 100" y="0" x="0" xmlns="http://www.w3.org/2000/svg" id="Layer_1" version="1.1" preserveAspectRatio="xMidYMid" width="200" height="200" xmlns:xlink="http://www.w3.org/1999/xlink" style="margin-top:0px;margin-right:0px;margin-bottom:0px;margin-left:0px;display:block;shape-rendering:auto;background-position-x:0%;background-position-y:0%;background-size:auto;background-origin:padding-box;background-clip:border-box;background:scroll rgba(255, 255, 255, 0) none  repeat;width:200px;height:200px;;animation:none"><g class="ldl-scale" style="transform-origin:50px 50px;transform:matrix(0.8, 0, 0, 0.8, 0, 0);;animation:none"><g class="ldl-ani"><g class="ldl-layer"><g class="ldl-ani"><g><g class="ldl-layer"><g class="ldl-ani" style="transform-origin:50px 50px;transform:matrix(1.03, 0, 0, 1.03, 0, 0);animation-duration:1s;animation-timing-function:linear;animation-delay:-0.517857s;animation-iteration-count:infinite;animation-direction:normal;animation-fill-mode:forwards;animation-play-state:paused;animation-name:animate;animation-timeline:auto;animation-range-start:normal;animation-range-end:normal;transform-box:view-box;;animation:none"><path d="M63.468 67.821l8.951 9.163 7.248-.001" stroke-width="3.5" stroke="#333" fill="none" stroke-miterlimit="10" style="stroke-width:3.5px;stroke:rgb(51, 51, 51);fill:none;;animation:none"></path></g></g>
<g class="ldl-layer"><g class="ldl-ani" style="transform-origin:50px 50px;transform:matrix(1.03, 0, 0, 1.03, 0, 0);animation-duration:1s;animation-timing-function:linear;animation-delay:-0.535714s;animation-iteration-count:infinite;animation-direction:normal;animation-fill-mode:forwards;animation-play-state:paused;animation-name:animate;animation-timeline:auto;animation-range-start:normal;animation-range-end:normal;transform-box:view-box;;animation:none"><circle stroke-miterlimit="10" stroke="#333" fill="#fff" stroke-width="3.5" r="3.662" cy="76.984" cx="79.667" style="stroke-width:3.5px;fill:rgb(255, 255, 255);stroke:rgb(51, 51, 51);;animation:none"></circle></g></g></g></g></g>
<g class="ldl-layer"><g class="ldl-ani"><g><g class="ldl-layer"><g class="ldl-ani" style="transform-origin:50px 50px;transform:matrix(1.03, 0, 0, 1.03, 0, 0);animation-duration:1s;animation-timing-function:linear;animation-delay:-0.553571s;animation-iteration-count:infinite;animation-direction:normal;animation-fill-mode:forwards;animation-play-state:paused;animation-name:animate;animation-timeline:auto;animation-range-start:normal;animation-range-end:normal;transform-box:view-box;;animation:none"><path d="M41.72 74.355l-7.767 9.32H19.085" stroke-width="3.5" stroke="#333" fill="none" stroke-miterlimit="10" style="stroke-width:3.5px;stroke:rgb(51, 51, 51);fill:none;;animation:none"></path></g></g>
<g class="ldl-layer"><g class="ldl-ani" style="transform-origin:50px 50px;transform:matrix(1.03, 0, 0, 1.03, 0, 0);animation-duration:1s;animation-timing-function:linear;animation-delay:-0.571429s;animation-iteration-count:infinite;animation-direction:normal;animation-fill-mode:forwards;animation-play-state:paused;animation-name:animate;animation-timeline:auto;animation-range-start:normal;animation-range-end:normal;transform-box:view-box;;animation:none"><circle stroke-miterlimit="10" stroke="#333" fill="#fff" stroke-width="3.5" r="3.662" cy="83.675" cx="19.861" style="stroke-width:3.5px;fill:rgb(255, 255, 255);stroke:rgb(51, 51, 51);;animation:none"></circle></g></g></g></g></g>
<g class="ldl-layer"><g class="ldl-ani"><g><g class="ldl-layer"><g class="ldl-ani" style="transform-origin:50px 50px;transform:matrix(1.02732, 0, 0, 1.02732, 0, 0);animation-duration:1s;animation-timing-function:linear;animation-delay:-0.589286s;animation-iteration-count:infinite;animation-direction:normal;animation-fill-mode:forwards;animation-play-state:paused;animation-name:animate;animation-timeline:auto;animation-range-start:normal;animation-range-end:normal;transform-box:view-box;;animation:none"><path d="M73.72 36.043l6.835-7.18" stroke-width="3.5" stroke="#333" fill="none" stroke-miterlimit="10" style="stroke-width:3.5px;stroke:rgb(51, 51, 51);fill:none;;animation:none"></path></g></g>
<g class="ldl-layer"><g class="ldl-ani" style="transform-origin:50px 50px;transform:matrix(1.02217, 0, 0, 1.02217, 0, 0);animation-duration:1s;animation-timing-function:linear;animation-delay:-0.607143s;animation-iteration-count:infinite;animation-direction:normal;animation-fill-mode:forwards;animation-play-state:paused;animation-name:animate;animation-timeline:auto;animation-range-start:normal;animation-range-end:normal;transform-box:view-box;;animation:none"><circle stroke-miterlimit="10" stroke="#333" fill="#fff" stroke-width="3.5" r="3.662" cy="29.271" cx="80.166" style="stroke-width:3.5px;fill:rgb(255, 255, 255);stroke:rgb(51, 51, 51);;animation:none"></circle></g></g></g></g></g>
<g class="ldl-layer"><g class="ldl-ani" style="transform-origin:50px 50px;transform:matrix(1.01568, 0, 0, 1.01568, 0, 0);animation-duration:1s;animation-timing-function:linear;animation-delay:-0.625s;animation-iteration-count:infinite;animation-direction:normal;animation-fill-mode:forwards;animation-play-state:paused;animation-name:animate;animation-timeline:auto;animation-range-start:normal;animation-range-end:normal;transform-box:view-box;;animation:none"><path fill="#f4e6c8" d="M42.34 24.36c-4.059 0-7.361 3.302-7.361 7.361 0 1.838.681 3.598 1.918 4.956.349.384.679.652 1.042.908a7.696 7.696 0 0 1 4.586-4.081l.702 2.167a5.356 5.356 0 0 0-.767.323 5.412 5.412 0 0 0-2.841 3.642 5.354 5.354 0 0 0 .616 3.884c.139.237.291.469.468.687l-1.767 1.438a7.71 7.71 0 0 1-.848-1.3 7.597 7.597 0 0 1-.815-4.461c-.716-.464-1.348-.89-2.061-1.675a9.606 9.606 0 0 1-2.176-3.984 9.54 9.54 0 0 1-.231-1.154c-3.237.785-5.637 3.726-5.637 7.149 0 1.984.806 3.866 2.213 5.247.116.114.228.231.352.337l-1.485 1.727a9.674 9.674 0 0 1-1.712-1.948 9.824 9.824 0 0 1-.374-.592 7.282 7.282 0 0 0-1.924 4.95c0 1.87.694 3.609 1.925 4.952a9.683 9.683 0 0 1 2.329-2.745l.714.888.714.888c-.122.098-.231.207-.346.311a7.32 7.32 0 0 0-2.407 5.429c0 3.423 2.4 6.364 5.636 7.149a9.51 9.51 0 0 1 2.337-5.047 9.641 9.641 0 0 1-.441-4.575 9.638 9.638 0 0 1 .801-2.692l1.569.731.495.231a7.43 7.43 0 0 0-.61 2.057 7.328 7.328 0 0 0 4.539 7.879c.307.123.623.233.952.315l-.552 2.211a9.6 9.6 0 0 1-5.63-3.92 7.297 7.297 0 0 0-1.286 4.162c0 4.059 3.302 7.362 7.361 7.362 4.059 0 7.362-3.302 7.362-7.362V31.721c.002-4.059-3.301-7.361-7.36-7.361z" style="stroke-width:1px;fill:rgb(243, 181, 184);;animation:none"></path></g></g>
<g class="ldl-layer"><g class="ldl-ani" style="transform-origin:50px 50px;transform:matrix(1.00929, 0, 0, 1.00929, 0, 0);animation-duration:1s;animation-timing-function:linear;animation-delay:-0.642857s;animation-iteration-count:infinite;animation-direction:normal;animation-fill-mode:forwards;animation-play-state:paused;animation-name:animate;animation-timeline:auto;animation-range-start:normal;animation-range-end:normal;transform-box:view-box;;animation:none"><path fill="#333" d="M42.347 22.082c-4.988 0-9.102 3.808-9.59 8.669-4.48.844-7.859 4.821-7.859 9.47 0 .856.126 1.694.344 2.504-2.057 1.819-3.273 4.456-3.273 7.219s1.216 5.398 3.271 7.217a9.645 9.645 0 0 0-.342 2.506c0 4.649 3.379 8.626 7.859 9.47.488 4.861 4.602 8.669 9.59 8.669 5.315 0 9.64-4.324 9.64-9.64V31.721c0-5.315-4.325-9.639-9.64-9.639zm7.362 46.085c0 4.059-3.302 7.362-7.362 7.362-4.059 0-7.361-3.302-7.361-7.362 0-1.511.45-2.947 1.286-4.162a9.595 9.595 0 0 0 5.63 3.92l.552-2.211a7.333 7.333 0 0 1-5.491-8.194 7.357 7.357 0 0 1 .611-2.057l-2.064-.962a9.638 9.638 0 0 0-.801 2.692 9.654 9.654 0 0 0 .441 4.575 9.51 9.51 0 0 0-2.336 5.047c-3.236-.785-5.636-3.726-5.636-7.149a7.332 7.332 0 0 1 2.753-5.74l-1.427-1.776a9.654 9.654 0 0 0-2.329 2.745 7.281 7.281 0 0 1-1.925-4.952c0-1.869.694-3.607 1.924-4.95a9.657 9.657 0 0 0 2.085 2.54l1.485-1.727a7.358 7.358 0 0 1-2.565-5.585c0-3.423 2.4-6.365 5.637-7.149a9.598 9.598 0 0 0 2.407 5.138c.714.785 1.346 1.211 2.061 1.675a7.626 7.626 0 0 0 1.662 5.761l1.767-1.438a5.364 5.364 0 0 1-1.084-4.571 5.414 5.414 0 0 1 3.607-3.965l-.702-2.167c-2.047.662-3.695 2.168-4.586 4.081a6.121 6.121 0 0 1-1.042-.908 7.342 7.342 0 0 1-1.918-4.956c0-4.059 3.302-7.361 7.361-7.361 4.059 0 7.362 3.302 7.362 7.361v36.445z" style="stroke-width:1px;fill:rgb(51, 51, 51);;animation:none"></path></g></g>
<g class="ldl-layer"><g class="ldl-ani"><g><g class="ldl-layer"><g class="ldl-ani" style="transform-origin:50px 50px;transform:matrix(1.00482, 0, 0, 1.00482, 0, 0);animation-duration:1s;animation-timing-function:linear;animation-delay:-0.660714s;animation-iteration-count:infinite;animation-direction:normal;animation-fill-mode:forwards;animation-play-state:paused;animation-name:animate;animation-timeline:auto;animation-range-start:normal;animation-range-end:normal;transform-box:view-box;;animation:none"><path d="M42.053 24.36v-9.478" stroke-width="3.5" stroke="#333" fill="none" stroke-miterlimit="10" style="stroke-width:3.5px;stroke:rgb(51, 51, 51);fill:none;;animation:none"></path></g></g>
<g class="ldl-layer"><g class="ldl-ani" style="transform-origin:50px 50px;transform:matrix(1.00036, 0, 0, 1.00036, 0, 0);animation-duration:1s;animation-timing-function:linear;animation-delay:-0.678571s;animation-iteration-count:infinite;animation-direction:normal;animation-fill-mode:forwards;animation-play-state:paused;animation-name:animate;animation-timeline:auto;animation-range-start:normal;animation-range-end:normal;transform-box:view-box;;animation:none"><circle stroke-miterlimit="10" stroke="#333" fill="#fff" stroke-width="3.5" r="3.662" cy="13.662" cx="42.053" style="stroke-width:3.5px;fill:rgb(255, 255, 255);stroke:rgb(51, 51, 51);;animation:none"></circle></g></g></g></g></g>
<g class="ldl-layer"><g class="ldl-ani"><g><g class="ldl-layer"><g class="ldl-ani" style="transform-origin:50px 50px;transform:matrix(0.991786, 0, 0, 0.991786, 0, 0);animation-duration:1s;animation-timing-function:linear;animation-delay:-0.696429s;animation-iteration-count:infinite;animation-direction:normal;animation-fill-mode:forwards;animation-play-state:paused;animation-name:animate;animation-timeline:auto;animation-range-start:normal;animation-range-end:normal;transform-box:view-box;;animation:none"><path d="M59.695 23.759l6.361-8.877h11.54" stroke-width="3.5" stroke="#333" fill="none" stroke-miterlimit="10" style="stroke-width:3.5px;stroke:rgb(51, 51, 51);fill:none;;animation:none"></path></g></g>
<g class="ldl-layer"><g class="ldl-ani" style="transform-origin:50px 50px;transform:matrix(0.982857, 0, 0, 0.982857, 0, 0);animation-duration:1s;animation-timing-function:linear;animation-delay:-0.714286s;animation-iteration-count:infinite;animation-direction:normal;animation-fill-mode:forwards;animation-play-state:paused;animation-name:animate;animation-timeline:auto;animation-range-start:normal;animation-range-end:normal;transform-box:view-box;;animation:none"><circle stroke-miterlimit="10" stroke="#333" fill="#fff" stroke-width="3.5" r="3.662" cy="14.882" cx="77.596" style="stroke-width:3.5px;fill:rgb(255, 255, 255);stroke:rgb(51, 51, 51);;animation:none"></circle></g></g></g></g></g>
<g class="ldl-layer"><g class="ldl-ani"><g><g class="ldl-layer"><g class="ldl-ani" style="transform-origin:50px 50px;transform:matrix(0.977013, 0, 0, 0.977013, 0, 0);animation-duration:1s;animation-timing-function:linear;animation-delay:-0.732143s;animation-iteration-count:infinite;animation-direction:normal;animation-fill-mode:forwards;animation-play-state:paused;animation-name:animate;animation-timeline:auto;animation-range-start:normal;animation-range-end:normal;transform-box:view-box;;animation:none"><path d="M77.531 52.681h6.99" stroke-width="3.5" stroke="#333" fill="none" stroke-miterlimit="10" style="stroke-width:3.5px;stroke:rgb(51, 51, 51);fill:none;;animation:none"></path></g></g>
<g class="ldl-layer"><g class="ldl-ani" style="transform-origin:50px 50px;transform:matrix(0.97254, 0, 0, 0.97254, 0, 0);animation-duration:1s;animation-timing-function:linear;animation-delay:-0.75s;animation-iteration-count:infinite;animation-direction:normal;animation-fill-mode:forwards;animation-play-state:paused;animation-name:animate;animation-timeline:auto;animation-range-start:normal;animation-range-end:normal;transform-box:view-box;;animation:none"><circle stroke-miterlimit="10" stroke="#333" fill="#fff" stroke-width="3.5" r="3.662" cy="52.681" cx="84.688" style="stroke-width:3.5px;fill:rgb(255, 255, 255);stroke:rgb(51, 51, 51);;animation:none"></circle></g></g></g></g></g>
<g class="ldl-layer"><g class="ldl-ani"><g><g class="ldl-layer"><g class="ldl-ani" style="transform-origin:50px 50px;transform:matrix(0.965948, 0, 0, 0.965948, 0, 0);animation-duration:1s;animation-timing-function:linear;animation-delay:-0.767857s;animation-iteration-count:infinite;animation-direction:normal;animation-fill-mode:forwards;animation-play-state:paused;animation-name:animate;animation-timeline:auto;animation-range-start:normal;animation-range-end:normal;transform-box:view-box;;animation:none"><path d="M59.29 76.919v9.419" stroke-width="3.5" stroke="#333" fill="none" stroke-miterlimit="10" style="stroke-width:3.5px;stroke:rgb(51, 51, 51);fill:none;;animation:none"></path></g></g>
<g class="ldl-layer"><g class="ldl-ani" style="transform-origin:50px 50px;transform:matrix(0.956722, 0, 0, 0.956722, 0, 0);animation-duration:1s;animation-timing-function:linear;animation-delay:-0.785714s;animation-iteration-count:infinite;animation-direction:normal;animation-fill-mode:forwards;animation-play-state:paused;animation-name:animate;animation-timeline:auto;animation-range-start:normal;animation-range-end:normal;transform-box:view-box;;animation:none"><circle stroke-miterlimit="10" stroke="#333" fill="#fff" stroke-width="3.5" r="3.662" cy="86.338" cx="59.29" style="stroke-width:3.5px;fill:rgb(255, 255, 255);stroke:rgb(51, 51, 51);;animation:none"></circle></g></g></g></g></g>
<g class="ldl-layer"><g class="ldl-ani"><g><g class="ldl-layer"><g class="ldl-ani" style="transform-origin:50px 50px;transform:matrix(0.947951, 0, 0, 0.947951, 0, 0);animation-duration:1s;animation-timing-function:linear;animation-delay:-0.803571s;animation-iteration-count:infinite;animation-direction:normal;animation-fill-mode:forwards;animation-play-state:paused;animation-name:animate;animation-timeline:auto;animation-range-start:normal;animation-range-end:normal;transform-box:view-box;;animation:none"><path d="M30.402 32.413l-6.435-6.879h-8.655" stroke-width="3.5" stroke="#333" fill="none" stroke-miterlimit="10" style="stroke-width:3.5px;stroke:rgb(51, 51, 51);fill:none;;animation:none"></path></g></g>
<g class="ldl-layer"><g class="ldl-ani" style="transform-origin:50px 50px;transform:matrix(0.939479, 0, 0, 0.939479, 0, 0);animation-duration:1s;animation-timing-function:linear;animation-delay:-0.821429s;animation-iteration-count:infinite;animation-direction:normal;animation-fill-mode:forwards;animation-play-state:paused;animation-name:animate;animation-timeline:auto;animation-range-start:normal;animation-range-end:normal;transform-box:view-box;;animation:none"><circle stroke-miterlimit="10" stroke="#333" fill="#fff" stroke-width="3.5" r="3.662" cy="25.534" cx="15.312" style="stroke-width:3.5px;fill:rgb(255, 255, 255);stroke:rgb(51, 51, 51);;animation:none"></circle></g></g></g></g></g>
<g class="ldl-layer"><g class="ldl-ani"><g><g class="ldl-layer"><g class="ldl-ani" style="transform-origin:50px 50px;transform:matrix(0.932925, 0, 0, 0.932925, 0, 0);animation-duration:1s;animation-timing-function:linear;animation-delay:-0.839286s;animation-iteration-count:infinite;animation-direction:normal;animation-fill-mode:forwards;animation-play-state:paused;animation-name:animate;animation-timeline:auto;animation-range-start:normal;animation-range-end:normal;transform-box:view-box;;animation:none"><path d="M29.41 66.366H18.197" stroke-width="3.5" stroke="#333" fill="none" stroke-miterlimit="10" style="stroke-width:3.5px;stroke:rgb(51, 51, 51);fill:none;;animation:none"></path></g></g>
<g class="ldl-layer"><g class="ldl-ani" style="transform-origin:50px 50px;transform:matrix(0.926886, 0, 0, 0.926886, 0, 0);animation-duration:1s;animation-timing-function:linear;animation-delay:-0.857143s;animation-iteration-count:infinite;animation-direction:normal;animation-fill-mode:forwards;animation-play-state:paused;animation-name:animate;animation-timeline:auto;animation-range-start:normal;animation-range-end:normal;transform-box:view-box;;animation:none"><circle stroke-miterlimit="10" stroke="#333" fill="#fff" stroke-width="3.5" r="3.662" cy="66.366" cx="18.234" style="stroke-width:3.5px;fill:rgb(255, 255, 255);stroke:rgb(51, 51, 51);;animation:none"></circle></g></g></g></g></g>
<g class="ldl-layer"><g class="ldl-ani"><g><g class="ldl-layer"><g class="ldl-ani" style="transform-origin:50px 50px;transform:matrix(0.921517, 0, 0, 0.921517, 0, 0);animation-duration:1s;animation-timing-function:linear;animation-delay:-0.875s;animation-iteration-count:infinite;animation-direction:normal;animation-fill-mode:forwards;animation-play-state:paused;animation-name:animate;animation-timeline:auto;animation-range-start:normal;animation-range-end:normal;transform-box:view-box;;animation:none"><path fill="#f4e6c8" d="M59.297 24.36c4.059 0 7.361 3.302 7.361 7.361a7.343 7.343 0 0 1-1.918 4.956 6.034 6.034 0 0 1-1.042.908 7.696 7.696 0 0 0-4.586-4.081l-.702 2.167c.267.086.521.199.767.323a5.412 5.412 0 0 1 2.841 3.642 5.354 5.354 0 0 1-.616 3.884 5.478 5.478 0 0 1-.468.687l1.767 1.438a7.71 7.71 0 0 0 .848-1.3 7.597 7.597 0 0 0 .815-4.461c.716-.464 1.348-.89 2.061-1.675a9.606 9.606 0 0 0 2.176-3.984 9.54 9.54 0 0 0 .231-1.154c3.237.785 5.637 3.726 5.637 7.149a7.349 7.349 0 0 1-2.213 5.247c-.116.114-.228.231-.352.337l1.485 1.727a9.674 9.674 0 0 0 1.712-1.948c.13-.194.258-.389.374-.592a7.282 7.282 0 0 1 1.924 4.95c0 1.87-.694 3.609-1.925 4.952a9.683 9.683 0 0 0-2.329-2.745l-.714.888-.714.888c.122.098.231.207.346.311a7.32 7.32 0 0 1 2.407 5.429c0 3.423-2.4 6.364-5.636 7.149a9.51 9.51 0 0 0-2.337-5.047 9.641 9.641 0 0 0 .441-4.575 9.638 9.638 0 0 0-.801-2.692l-1.569.731-.495.231a7.43 7.43 0 0 1 .61 2.057 7.328 7.328 0 0 1-4.539 7.879 7.271 7.271 0 0 1-.952.315l.552 2.211a9.6 9.6 0 0 0 5.63-3.92 7.297 7.297 0 0 1 1.286 4.162c0 4.059-3.302 7.362-7.361 7.362-4.059 0-7.362-3.302-7.362-7.362V31.721c-.002-4.059 3.3-7.361 7.36-7.361z" style="stroke-width:1px;fill:rgb(243, 181, 184);;animation:none"></path></g></g>
<g class="ldl-layer"><g class="ldl-ani" style="transform-origin:50px 50px;transform:matrix(0.917572, 0, 0, 0.917572, 0, 0);animation-duration:1s;animation-timing-function:linear;animation-delay:-0.892857s;animation-iteration-count:infinite;animation-direction:normal;animation-fill-mode:forwards;animation-play-state:paused;animation-name:animate;animation-timeline:auto;animation-range-start:normal;animation-range-end:normal;transform-box:view-box;;animation:none"><path fill="#333" d="M49.65 31.721v36.446c0 5.315 4.324 9.64 9.64 9.64 4.988 0 9.102-3.808 9.59-8.669 4.48-.844 7.859-4.821 7.859-9.47a9.65 9.65 0 0 0-.342-2.506c2.055-1.819 3.271-4.455 3.271-7.217 0-2.763-1.216-5.4-3.273-7.219a9.618 9.618 0 0 0 .344-2.504c0-4.649-3.379-8.626-7.859-9.47-.488-4.862-4.602-8.669-9.59-8.669-5.316-.001-9.64 4.323-9.64 9.638zm2.278 0c0-4.059 3.302-7.361 7.362-7.361 4.059 0 7.361 3.302 7.361 7.361a7.343 7.343 0 0 1-1.918 4.956 6.034 6.034 0 0 1-1.042.908 7.696 7.696 0 0 0-4.586-4.081l-.702 2.167a5.412 5.412 0 0 1 3.607 3.965 5.367 5.367 0 0 1-1.084 4.571l1.767 1.438a7.622 7.622 0 0 0 1.662-5.761c.716-.464 1.348-.89 2.061-1.675a9.598 9.598 0 0 0 2.407-5.138c3.237.785 5.637 3.726 5.637 7.149a7.36 7.36 0 0 1-2.565 5.585l1.485 1.727a9.657 9.657 0 0 0 2.085-2.54 7.282 7.282 0 0 1 1.924 4.95c0 1.87-.694 3.609-1.925 4.952a9.654 9.654 0 0 0-2.329-2.745l-1.427 1.776a7.332 7.332 0 0 1 2.753 5.74c0 3.423-2.4 6.364-5.636 7.149a9.514 9.514 0 0 0-2.336-5.047 9.641 9.641 0 0 0 .441-4.575 9.638 9.638 0 0 0-.801-2.692l-2.064.962c.302.648.507 1.339.611 2.057a7.334 7.334 0 0 1-5.491 8.194l.552 2.211a9.6 9.6 0 0 0 5.63-3.92 7.297 7.297 0 0 1 1.286 4.162c0 4.059-3.302 7.362-7.361 7.362-4.059 0-7.362-3.302-7.362-7.362V31.721z" style="stroke-width:1px;fill:rgb(51, 51, 51);;animation:none"></path></g></g>
<g class="ldl-layer"><g class="ldl-ani" style="transform-origin:50px 50px;transform:matrix(0.914247, 0, 0, 0.914247, 0, 0);animation-duration:1s;animation-timing-function:linear;animation-delay:-0.910714s;animation-iteration-count:infinite;animation-direction:normal;animation-fill-mode:forwards;animation-play-state:paused;animation-name:animate;animation-timeline:auto;animation-range-start:normal;animation-range-end:normal;transform-box:view-box;;animation:none"><path opacity=".2" d="M79.667 49.944c0-2.763-1.216-5.4-3.273-7.219a9.618 9.618 0 0 0 .344-2.504c0-4.649-3.379-8.626-7.859-9.47-.455-4.535-4.067-8.15-8.598-8.616.159.959.232 1.956.189 2.98 4.46 1.631 7.305 7.076 6.581 12.941a14.815 14.815 0 0 1-.743 3.114c1.825 2.555 2.661 6.035 2.231 9.52-.43 3.485-2.086 6.656-4.476 8.691.096 1.047.094 2.12-.04 3.204-.724 5.865-4.807 10.454-9.53 10.952a14.625 14.625 0 0 1-.761 2.494 9.579 9.579 0 0 0 5.556 1.776c4.988 0 9.102-3.808 9.59-8.669 4.48-.844 7.859-4.821 7.859-9.47a9.65 9.65 0 0 0-.342-2.506c2.056-1.82 3.272-4.455 3.272-7.218z" style="stroke-width:1px;opacity:0.2;;animation:none"></path></g></g></g></g></g>
<g class="ldl-layer"><g class="ldl-ani" style="transform-origin:50px 50px;transform:matrix(0.911647, 0, 0, 0.911647, 0, 0);animation-duration:1s;animation-timing-function:linear;animation-delay:-0.928571s;animation-iteration-count:infinite;animation-direction:normal;animation-fill-mode:forwards;animation-play-state:paused;animation-name:animate;animation-timeline:auto;animation-range-start:normal;animation-range-end:normal;transform-box:view-box;;animation:none"><path opacity=".2" d="M42.347 22.082c-.267 0-.53.016-.791.038a9.673 9.673 0 0 1 1.554 5.24v37.949c0 4.581-3.215 8.447-7.588 9.646a9.597 9.597 0 0 0 6.825 2.853c5.315 0 9.64-4.324 9.64-9.64V31.721c0-5.315-4.325-9.639-9.64-9.639z" style="stroke-width:1px;opacity:0.2;;animation:none"></path></g></g>
<g class="ldl-layer"><g class="ldl-ani" style="transform-origin:50px 50px;transform:matrix(0.91, 0, 0, 0.91, 0, 0);animation-duration:1s;animation-timing-function:linear;animation-delay:-0.946429s;animation-iteration-count:infinite;animation-direction:normal;animation-fill-mode:forwards;animation-play-state:paused;animation-name:animate;animation-timeline:auto;animation-range-start:normal;animation-range-end:normal;transform-box:view-box;;animation:none"><path d="M54.295 35.964v.592" stroke-miterlimit="10" stroke-width="3.5" stroke-linecap="round" stroke="#fff" fill="none" style="stroke-width:3.5px;stroke:rgb(255, 255, 255);fill:none;;animation:none"></path></g></g>
<g class="ldl-layer"><g class="ldl-ani" style="transform-origin:50px 50px;transform:matrix(0.91, 0, 0, 0.91, 0, 0);animation-duration:1s;animation-timing-function:linear;animation-delay:-0.964286s;animation-iteration-count:infinite;animation-direction:normal;animation-fill-mode:forwards;animation-play-state:paused;animation-name:animate;animation-timeline:auto;animation-range-start:normal;animation-range-end:normal;transform-box:view-box;;animation:none"><path stroke-miterlimit="10" stroke-width="3.5" stroke-linecap="round" stroke="#fff" fill="none" d="M58.695 27.013c-2.796 0-3.984 1.992-4.305 5.399" style="stroke-width:3.5px;stroke:rgb(255, 255, 255);fill:none;;animation:none"></path></g></g>
<g class="ldl-layer"><g class="ldl-ani" style="transform-origin:50px 50px;transform:matrix(0.91, 0, 0, 0.91, 0, 0);animation-duration:1s;animation-timing-function:linear;animation-delay:-0.982143s;animation-iteration-count:infinite;animation-direction:normal;animation-fill-mode:forwards;animation-play-state:paused;animation-name:animate;animation-timeline:auto;animation-range-start:normal;animation-range-end:normal;transform-box:view-box;;animation:none"><path stroke-miterlimit="10" stroke-width="3.5" stroke-linecap="round" stroke="#fff" fill="none" d="M30.237 38.679c.27-.723.715-1.36 1.283-1.86" style="stroke-width:3.5px;stroke:rgb(255, 255, 255);fill:none;;animation:none"></path></g></g>
<g class="ldl-layer"><g class="ldl-ani" style="transform-origin:50px 50px;transform:matrix(0.91, 0, 0, 0.91, 0, 0);animation-duration:1s;animation-timing-function:linear;animation-delay:-1s;animation-iteration-count:infinite;animation-direction:normal;animation-fill-mode:forwards;animation-play-state:paused;animation-name:animate;animation-timeline:auto;animation-range-start:normal;animation-range-end:normal;transform-box:view-box;;animation:none"><path stroke-miterlimit="10" stroke-width="3.5" stroke-linecap="round" stroke="#fff" fill="none" d="M30.401 42.3a4.666 4.666 0 0 1-.131-.299" style="stroke-width:3.5px;stroke:rgb(255, 255, 255);fill:none;;animation:none"></path></g></g>
<metadata xmlns:d="https://loading.io/stock/"></metadata></g></g>
<STYLE type="text/css">@keyframes animate { 0.00% {transform: translate(0.00px,0.00px) rotate(0.00deg) scale(0.91, 0.91) skew(0deg, 0.00deg) ;opacity: 1.00;}4.00% {transform: translate(0.00px,0.00px) rotate(0.00deg) scale(0.91, 0.91) ;}8.00% {animation-timing-function: cubic-bezier(0.69,0.60,0.35,0.27);transform: translate(0.00px,0.00px) rotate(0.00deg) scale(0.91, 0.91) ;}14.00% {transform: translate(0.00px,0.00px) rotate(0.00deg) scale(0.93, 0.93) ;}18.00% {transform: translate(0.00px,0.00px) rotate(0.00deg) scale(0.94, 0.94) ;}22.00% {animation-timing-function: cubic-bezier(0.67,0.66,0.34,0.33);transform: translate(0.00px,0.00px) rotate(0.00deg) scale(0.96, 0.96) ;}26.00% {transform: translate(0.00px,0.00px) rotate(0.00deg) scale(0.97, 0.97) ;}30.00% {transform: translate(0.00px,0.00px) rotate(0.00deg) scale(0.99, 0.99) ;}34.00% {animation-timing-function: cubic-bezier(0.65,0.71,0.32,0.38);transform: translate(0.00px,0.00px) rotate(0.00deg) scale(1.01, 1.01) ;}40.00% {animation-timing-function: cubic-bezier(0.64,0.74,0.31,0.41);transform: translate(0.00px,0.00px) rotate(0.00deg) scale(1.02, 1.02) ;}46.00% {animation-timing-function: cubic-bezier(0.60,0.91,0.23,0.63);transform: translate(0.00px,0.00px) rotate(0.00deg) scale(1.03, 1.03) ;}50.00% {transform: translate(0.00px,0.00px) rotate(0.00deg) scale(1.03, 1.03) ;}54.00% {transform: translate(0.00px,0.00px) rotate(0.00deg) scale(1.03, 1.03) ;}58.00% {animation-timing-function: cubic-bezier(0.69,0.60,0.35,0.27);transform: translate(0.00px,0.00px) rotate(0.00deg) scale(1.03, 1.03) ;}64.00% {transform: translate(0.00px,0.00px) rotate(0.00deg) scale(1.01, 1.01) ;}68.00% {transform: translate(0.00px,0.00px) rotate(0.00deg) scale(1.00, 1.00) ;}72.00% {animation-timing-function: cubic-bezier(0.67,0.66,0.34,0.33);transform: translate(0.00px,0.00px) rotate(0.00deg) scale(0.98, 0.98) ;}76.00% {animation-timing-function: cubic-bezier(0.66,0.68,0.33,0.35);transform: translate(0.00px,0.00px) rotate(0.00deg) scale(0.97, 0.97) ;}82.00% {animation-timing-function: cubic-bezier(0.65,0.71,0.32,0.38);transform: translate(0.00px,0.00px) rotate(0.00deg) scale(0.94, 0.94) ;}88.00% {animation-timing-function: cubic-bezier(0.65,0.73,0.31,0.40);transform: translate(0.00px,0.00px) rotate(0.00deg) scale(0.92, 0.92) ;}94.00% {animation-timing-function: cubic-bezier(0.63,0.80,0.28,0.48);transform: translate(0.00px,0.00px) rotate(0.00deg) scale(0.91, 0.91) ;}100.00% {animation-timing-function: cubic-bezier(0.63,0.80,0.28,0.48);transform: translate(0.00px,0.00px) rotate(0.00deg) scale(0.91, 0.91) ;} }</STYLE><!-- [ldio] generated by https://loading.io --></svg>